<svg width="199" height="65" viewBox="0 0 199 65" fill="none" xmlns="http://www.w3.org/2000/svg">
<g clip-path="url(#clip0_1_3)">
<path fill-rule="evenodd" clip-rule="evenodd" d="M25.8897 25.7084L25.8905 49.4016L49.7443 25.7084H25.8897Z" fill="url(#paint0_linear_1_3)"/>
<path fill-rule="evenodd" clip-rule="evenodd" d="M0 23.7107L24.8856 0L49.7718 23.7107H0Z" fill="url(#paint1_linear_1_3)"/>
<path fill-rule="evenodd" clip-rule="evenodd" d="M0 23.7107L24.8856 0L24.8862 15.092L0 23.7107Z" fill="#ED1C24"/>
<path fill-rule="evenodd" clip-rule="evenodd" d="M24.8897 15.0966L24.8857 0L49.7718 23.7107L24.8897 15.0966V15.0966Z" fill="url(#paint2_linear_1_3)"/>
<path fill-rule="evenodd" clip-rule="evenodd" d="M25.8897 25.7084L25.8905 49.4016L33.6842 33.4228L25.8897 25.7084Z" fill="url(#paint3_linear_1_3)"/>
<path fill-rule="evenodd" clip-rule="evenodd" d="M25.8897 25.7084L33.6876 33.4233L49.7443 25.7084H25.8897Z" fill="#ED1C24"/>
<path fill-rule="evenodd" clip-rule="evenodd" d="M44.5276 27.8639L28.4773 27.8605L25.899 25.7193L28.401 28.2046L44.5567 28.2025L49.7502 25.7198L44.5276 27.8639V27.8639Z" fill="url(#paint4_linear_1_3)"/>
<path fill-rule="evenodd" clip-rule="evenodd" d="M23.9022 25.7084V49.4016L0.048317 25.7084H23.9022V25.7084Z" fill="url(#paint5_linear_1_3)"/>
<path fill-rule="evenodd" clip-rule="evenodd" d="M23.9022 25.7084V49.4016L16.1093 33.4228L23.9022 25.7084Z" fill="url(#paint6_linear_1_3)"/>
<path fill-rule="evenodd" clip-rule="evenodd" d="M23.9022 25.7084L16.105 33.4233L0.048317 25.7084H23.9022V25.7084Z" fill="#ED1C24"/>
<path fill-rule="evenodd" clip-rule="evenodd" d="M24.8856 4.77441L8.16743 20.8879H41.6036L24.8856 4.77441Z" fill="url(#paint7_linear_1_3)"/>
<path fill-rule="evenodd" clip-rule="evenodd" d="M28.401 28.2046V44.2598L44.5602 28.2046H28.401V28.2046Z" fill="url(#paint8_linear_1_3)"/>
<path fill-rule="evenodd" clip-rule="evenodd" d="M21.3919 44.2598V28.2046H5.23325L21.3919 44.2598Z" fill="url(#paint9_linear_1_3)"/>
<path fill-rule="evenodd" clip-rule="evenodd" d="M8.16583 20.8866L2.57671 22.8167L8.02834 20.595L24.8734 4.7829L8.16583 20.8866V20.8866Z" fill="url(#paint10_linear_1_3)"/>
<path fill-rule="evenodd" clip-rule="evenodd" d="M5.26529 27.8639L21.3156 27.8605L23.8941 25.7193L21.3919 28.2046L5.23512 28.2025L0.042984 25.7198L5.26529 27.8639V27.8639Z" fill="url(#paint11_linear_1_3)"/>
<path fill-rule="evenodd" clip-rule="evenodd" d="M70.6496 16.7585H78.0847L79.01 12.3973H58.998L58.0735 16.7585H65.5092L61.2045 37.0507H66.3451L70.6496 16.7585V16.7585ZM98.1344 12.3973H80.0418L74.8134 37.0507H93.4866L94.4118 32.6901H80.7754L82.1284 26.3028H94.12L95.0451 21.9425H83.0534L84.1533 16.7585H97.2091L98.1344 12.3973V12.3973ZM119.999 20.4669C120.502 16.8274 118.594 11.7452 111.229 11.7452C104.89 11.7452 98.9913 16.1405 97.1626 24.7583C95.3542 33.2733 99.112 37.7068 105.656 37.7068C111.823 37.7068 116.111 33.9602 118.273 28.6033H113.131C111.879 31.6249 109.548 33.2394 106.703 33.2394C102.355 33.2394 101.451 29.2568 102.388 24.8259C103.869 17.8565 107.849 16.2076 110.317 16.2076C114.565 16.2076 114.762 18.9901 114.86 20.4669H119.999ZM134.969 29.5651H134.9L128.776 12.3973H123.363L118.133 37.0507H122.93L126.66 19.4699H126.729L133.039 37.0507H138.178L143.407 12.3973H138.61L134.969 29.5651V29.5651ZM151.053 12.3973H145.914L140.683 37.0507H145.823L151.053 12.3973ZM148.948 29.4625C148.296 32.518 148.742 37.7068 157.719 37.7068C159.878 37.7068 167.553 37.0507 169.124 29.634C170.066 25.2048 167.273 23.8318 164.087 23.0068L158.408 21.5297C157.43 21.2906 155.941 20.8781 156.347 18.9561C156.823 16.7229 159.304 16.0021 161.256 16.0021C165.746 16.0021 165.604 18.6126 165.509 19.7109H170.443C171.047 16.6895 170.076 11.7454 162.538 11.7454C154.552 11.7454 152.052 16.5867 151.47 19.3336C150.322 24.7583 153.972 25.6509 157.748 26.5774L160.253 27.1951C162.724 27.8136 164.468 28.3289 164.062 30.2522C163.504 32.8619 160.677 33.4445 158.246 33.4445C153.755 33.4445 153.625 30.836 153.879 29.4625H148.948ZM175.73 31.9693H184.809L185.308 37.0507H190.891L187.453 12.3973H181.525L167.524 37.0507H172.936L175.73 31.9693V31.9693ZM183.221 17.9594H183.289L184.273 27.7107H178.004L183.221 17.9594H183.221Z" fill="white"/>
<path d="M51.1464 61.7563H49.7956V49.4939H52.136L54.9947 59.786H55.0259L57.916 49.4939H60.3035V61.7563H58.8587V50.852H58.8269L55.6541 61.7563H54.2878L51.1776 50.852H51.1464V61.7563ZM66.8067 60.5161H66.7744C66.3819 61.5015 65.7695 61.9254 64.7801 61.9254C63.0994 61.9254 62.6124 60.7537 62.6124 59.1066C62.6124 56.5086 64.9686 56.3888 66.7744 56.4402C66.8067 55.3022 66.8224 54.0623 65.4398 54.0623C64.5757 54.0623 64.1208 54.6906 64.1987 55.5911H62.8009C62.8636 53.6718 63.8057 53.0099 65.4871 53.0099C67.5288 53.0099 68.0624 54.1471 68.0624 55.5911V59.7182C68.0674 60.4003 68.12 61.0813 68.22 61.7563H66.8067V60.5161ZM63.9 59.2087C63.9 60.0408 64.2767 60.7873 65.1416 60.7873C65.9265 60.7873 66.9009 60.2614 66.7741 57.4927C65.5495 57.5099 63.9 57.3909 63.9 59.2087V59.2087ZM70.4656 49.4939H71.9115V50.9885H70.4656V49.4939ZM71.8325 61.7563H70.5444V53.1793H71.8325V61.7563ZM76.4029 61.9254C74.6908 61.9254 73.6227 61.111 73.6697 59.1403H75.13C75.13 59.6328 75.1463 60.7873 76.4499 60.7873C77.2198 60.7873 77.8162 60.3632 77.8162 59.4804C77.8162 57.9516 73.8582 57.9179 73.8582 55.3533C73.8582 54.4531 74.3609 53.0099 76.5911 53.0099C78.0044 53.0099 79.2148 53.7399 79.104 55.4379H77.6755C77.691 54.5374 77.251 54.062 76.4344 54.062C75.7435 54.062 75.209 54.4703 75.209 55.2168C75.209 56.7292 79.1675 56.6945 79.1675 59.3107C79.1675 61.1956 77.9737 61.9254 76.4029 61.9254V61.9254ZM88.6695 55.9302C88.7013 54.5209 88.0571 54.1469 87.5696 54.1469C86.5805 54.1469 85.9048 54.6569 85.9048 57.0004C85.9048 59.786 86.2351 60.7873 87.5696 60.7873C87.8686 60.7873 88.7635 60.4483 88.7175 58.9025H90.0673C90.1151 61.3146 88.4501 61.9254 87.5696 61.9254C85.8894 61.9254 84.5548 61.3822 84.5548 57.5947C84.5548 55.0811 84.822 53.0099 87.5696 53.0099C89.1567 53.0099 90.0833 54.0114 90.0048 55.9302H88.6695ZM92.1568 57.5947C92.1568 55.0811 92.424 53.0099 95.1719 53.0099C97.9211 53.0099 98.1883 55.0811 98.1883 57.5947C98.1883 61.3822 96.8524 61.9254 95.1719 61.9254C93.4914 61.9254 92.1568 61.3822 92.1568 57.5947V57.5947ZM96.8367 57.0004C96.8367 54.6569 96.1618 54.1469 95.1719 54.1469C94.1833 54.1469 93.5068 54.6569 93.5068 57.0004C93.5068 59.786 93.8373 60.7873 95.1719 60.7873C96.5078 60.7873 96.8367 59.786 96.8367 57.0004ZM104.533 61.7563V55.8122C104.533 54.8947 104.235 54.1469 103.135 54.1469C101.722 54.1469 101.518 55.506 101.518 56.6778V61.7563H100.23V54.9626C100.23 54.368 100.199 53.7736 100.151 53.1793H101.518V54.2826H101.58C102.084 53.315 102.68 53.0101 103.701 53.0101C105.398 53.0101 105.822 54.1132 105.822 55.8122V61.7563H104.533ZM110.424 61.9254C108.711 61.9254 107.644 61.111 107.69 59.1403H109.151C109.151 59.6328 109.167 60.7873 110.47 60.7873C111.241 60.7873 111.837 60.3632 111.837 59.4804C111.837 57.9516 107.879 57.9179 107.879 55.3533C107.879 54.4531 108.382 53.0099 110.612 53.0099C112.026 53.0099 113.235 53.7399 113.125 55.4379H111.697C111.712 54.5374 111.272 54.062 110.455 54.062C109.765 54.062 109.23 54.4703 109.23 55.2168C109.23 56.7292 113.189 56.6945 113.189 59.3107C113.189 61.1956 111.995 61.9254 110.424 61.9254V61.9254ZM115.198 53.1793V51.5311L116.486 50.9031V53.1793H118.214V54.2325H116.486V59.4807C116.486 60.0236 116.486 60.72 117.665 60.72C117.759 60.72 117.963 60.6863 118.246 60.6521V61.7215C117.822 61.756 117.398 61.8581 116.973 61.8581C115.748 61.8581 115.198 61.3146 115.198 60.3284V54.2325H113.894V53.1793H115.198ZM120.758 54.47H120.791C121.324 53.1618 121.985 53.0099 123.241 53.0099V54.4531C123.131 54.4364 123.006 54.4194 122.895 54.4022C122.781 54.3813 122.666 54.3699 122.55 54.368C121.12 54.368 120.758 55.5397 120.758 56.6945V61.7563H119.47V53.1793H120.758V54.47ZM128.895 53.1793H130.183V59.9729C130.183 60.5668 130.214 61.1616 130.262 61.7563H128.895V60.72H128.849C128.658 61.0857 128.369 61.3919 128.014 61.6047C127.66 61.8174 127.252 61.9284 126.838 61.9254C125.455 61.9254 124.702 61.1783 124.702 59.7182V53.1793H125.989V59.1233C125.989 60.1593 126.428 60.8557 127.339 60.8557C128.031 60.8557 128.895 60.295 128.895 58.8685V53.1793ZM132.65 53.1793V51.5311L133.936 50.9031V53.1793H135.665V54.2325H133.936V59.4807C133.936 60.0236 133.936 60.72 135.115 60.72C135.209 60.72 135.413 60.6863 135.695 60.6521V61.7215C135.272 61.756 134.847 61.8581 134.425 61.8581C133.2 61.8581 132.649 61.3146 132.649 60.3284V54.2325H131.346V53.1793H132.65ZM136.655 57.5947C136.655 55.0811 136.922 53.0099 139.67 53.0099C142.419 53.0099 142.686 55.0811 142.686 57.5947C142.686 61.3822 141.35 61.9254 139.67 61.9254C137.989 61.9254 136.655 61.3822 136.655 57.5947V57.5947ZM141.334 57.0004C141.334 54.6569 140.66 54.1469 139.67 54.1469C138.681 54.1469 138.004 54.6569 138.004 57.0004C138.004 59.786 138.335 60.7873 139.67 60.7873C141.006 60.7873 141.334 59.786 141.334 57.0004ZM146.062 54.47H146.095C146.627 53.1618 147.289 53.0099 148.544 53.0099V54.4531C148.435 54.4364 148.309 54.4194 148.198 54.4022C148.085 54.3813 147.969 54.3699 147.854 54.368C146.424 54.368 146.062 55.5397 146.062 56.6945V61.7563H144.774V53.1793H146.062V54.47ZM154.041 60.5161H154.01C153.618 61.5015 153.005 61.9254 152.017 61.9254C150.334 61.9254 149.848 60.7537 149.848 59.1066C149.848 56.5086 152.205 56.3888 154.01 56.4402C154.041 55.3022 154.058 54.0623 152.676 54.0623C151.811 54.0623 151.355 54.6906 151.434 55.5911H150.037C150.1 53.6718 151.042 53.0099 152.722 53.0099C154.764 53.0099 155.298 54.1471 155.298 55.5911V59.7182C155.303 60.4003 155.356 61.0813 155.456 61.7563H154.041L154.041 60.5161ZM151.136 59.2087C151.136 60.0408 151.513 60.7873 152.376 60.7873C153.162 60.7873 154.135 60.2614 154.01 57.4927C152.785 57.5099 151.136 57.3909 151.136 59.2087V59.2087ZM162.697 54.1983H162.728C163.168 53.3993 163.718 53.0099 164.55 53.0099C165.821 53.0099 167.11 53.5525 167.11 57.3225C167.11 59.4629 167.048 61.9254 164.487 61.9254C163.733 61.9254 163.183 61.5696 162.743 60.8904H162.697V65H161.409V53.1793H162.697V54.1983ZM165.76 57.3225C165.76 56.0328 165.76 54.1469 164.141 54.1469C162.555 54.1469 162.697 56.5251 162.697 57.8325C162.697 58.9706 162.759 60.7873 164.189 60.7873C165.571 60.7873 165.76 59.6156 165.76 57.3225V57.3225ZM168.932 57.5947C168.932 55.0811 169.199 53.0099 171.948 53.0099C174.697 53.0099 174.962 55.0811 174.962 57.5947C174.962 61.3822 173.628 61.9254 171.948 61.9254C170.267 61.9254 168.932 61.3822 168.932 57.5947V57.5947ZM173.613 57.0004C173.613 54.6569 172.938 54.1469 171.948 54.1469C170.958 54.1469 170.283 54.6569 170.283 57.0004C170.283 59.786 170.613 60.7873 171.948 60.7873C173.282 60.7873 173.613 59.786 173.613 57.0004ZM178.34 54.47H178.371C178.906 53.1618 179.565 53.0099 180.823 53.0099V54.4531C180.713 54.4364 180.586 54.4194 180.477 54.4022C180.362 54.3812 180.247 54.3698 180.131 54.368C178.702 54.368 178.34 55.5397 178.34 56.6945V61.7563H177.052V53.1793H178.34V54.47ZM189.617 61.7563V55.8122C189.617 54.9454 189.398 54.1469 188.361 54.1469C188.144 54.1539 187.93 54.2095 187.737 54.3096C187.544 54.4096 187.376 54.5515 187.246 54.7248C187.047 55.114 186.945 55.5449 186.948 55.9814V61.7563H185.66V54.9626C185.66 54.368 185.627 53.7736 185.581 53.1793H186.948V54.2489H186.979C187.356 53.332 188.031 53.0099 188.958 53.0099C189.68 53.0099 190.513 53.332 190.811 54.1132C191.251 53.1962 191.974 53.0099 192.697 53.0099C193.529 53.0099 194.864 53.2129 194.864 55.2338V61.7563H193.575V55.8122C193.575 54.9454 193.356 54.1469 192.32 54.1469C191.832 54.1469 191.691 54.1646 191.345 54.4703C190.968 54.8096 190.905 55.659 190.905 55.9814V61.7563H189.617ZM196.249 55.0811V54.4433C197.746 52.178 198.189 51.7631 198.189 50.8058C198.189 50.3674 197.99 50.072 197.554 50.072C197.046 50.072 196.95 50.5267 196.956 50.9731H196.263C196.204 50.0559 196.632 49.4576 197.503 49.4576C198.425 49.4576 198.867 49.9127 198.867 50.9103C198.867 52.1464 198.293 52.5605 196.972 54.4433H199V55.0811H196.249Z" fill="white"/>
</g>
<defs>
<linearGradient id="paint0_linear_1_3" x1="25.8886" y1="25.7095" x2="41.1873" y2="41.1158" gradientUnits="userSpaceOnUse">
<stop stop-color="#CE181E"/>
<stop offset="1" stop-color="#94070A"/>
</linearGradient>
<linearGradient id="paint1_linear_1_3" x1="12.4428" y1="11.3547" x2="44.3556" y2="43.4916" gradientUnits="userSpaceOnUse">
<stop stop-color="#CE181E"/>
<stop offset="1" stop-color="#94070A"/>
</linearGradient>
<linearGradient id="paint2_linear_1_3" x1="21.3383" y1="3.52289" x2="52.6043" y2="35.0087" gradientUnits="userSpaceOnUse">
<stop stop-color="#D71920"/>
<stop offset="1" stop-color="#B11116"/>
</linearGradient>
<linearGradient id="paint3_linear_1_3" x1="19.9316" y1="31.6252" x2="35.2303" y2="47.0314" gradientUnits="userSpaceOnUse">
<stop stop-color="#CE181E"/>
<stop offset="1" stop-color="#A70E13"/>
</linearGradient>
<linearGradient id="paint4_linear_1_3" x1="25.899" y1="26.9621" x2="49.7502" y2="26.9621" gradientUnits="userSpaceOnUse">
<stop stop-color="#ED1C24"/>
<stop offset="0.3" stop-color="white"/>
<stop offset="1" stop-color="#ED1C24"/>
</linearGradient>
<linearGradient id="paint5_linear_1_3" x1="6.01037" y1="19.788" x2="36.603" y2="50.596" gradientUnits="userSpaceOnUse">
<stop stop-color="#D71920"/>
<stop offset="1" stop-color="#B11116"/>
</linearGradient>
<linearGradient id="paint6_linear_1_3" x1="17.9251" y1="31.6196" x2="33.239" y2="47.0413" gradientUnits="userSpaceOnUse">
<stop stop-color="#CE181E"/>
<stop offset="1" stop-color="#8B0304"/>
</linearGradient>
<linearGradient id="paint7_linear_1_3" x1="16.5265" y1="12.5874" x2="37.9632" y2="34.175" gradientUnits="userSpaceOnUse">
<stop stop-color="#ED1C24"/>
<stop offset="1" stop-color="#C4161C"/>
</linearGradient>
<linearGradient id="paint8_linear_1_3" x1="14.6653" y1="14.569" x2="36.1149" y2="36.1694" gradientUnits="userSpaceOnUse">
<stop stop-color="#ED1C24"/>
<stop offset="1" stop-color="#C4161C"/>
</linearGradient>
<linearGradient id="paint9_linear_1_3" x1="7.10332" y1="22.0432" x2="28.7868" y2="43.8791" gradientUnits="userSpaceOnUse">
<stop stop-color="#ED1C24"/>
<stop offset="1" stop-color="#C4161C"/>
</linearGradient>
<linearGradient id="paint10_linear_1_3" x1="3.61066" y1="23.8435" x2="23.6977" y2="3.61547" gradientUnits="userSpaceOnUse">
<stop stop-color="#ED1C24"/>
<stop offset="0.2" stop-color="white"/>
<stop offset="1" stop-color="#F15A22"/>
</linearGradient>
<linearGradient id="paint11_linear_1_3" x1="0.042984" y1="26.9621" x2="23.8941" y2="26.9621" gradientUnits="userSpaceOnUse">
<stop stop-color="#ED1C24"/>
<stop offset="0.5" stop-color="white"/>
<stop offset="1" stop-color="#ED1C24"/>
</linearGradient>
<clipPath id="clip0_1_3">
<rect width="199" height="65" fill="white"/>
</clipPath>
</defs>
</svg>
